<?xml version="1.0" encoding="UTF-8"?>
<svg id="Calque_1" data-name="Calque 1" xmlns="http://www.w3.org/2000/svg" xmlns:xlink="http://www.w3.org/1999/xlink" viewBox="0 0 150 150">
  <defs>
    <style>
      .cls-1 {
        fill: #f0f4f5;
      }

      .cls-2 {
        fill: #48a6d4;
      }

      .cls-3 {
        fill: url(#Dégradé_sans_nom_385);
      }

      .cls-4 {
        fill: url(#Dégradé_sans_nom_383);
      }

      .cls-5 {
        fill: #4f5ba0;
      }

      .cls-6 {
        fill: #4a4d92;
      }

      .cls-7 {
        fill: #7acbe5;
      }
    </style>
    <linearGradient id="Dégradé_sans_nom_383" data-name="Dégradé sans nom 383" x1="481.04" y1="103.12" x2="314.89" y2="321.7" gradientTransform="translate(-82.62 0) scale(.38)" gradientUnits="userSpaceOnUse">
      <stop offset="0" stop-color="#40a1d1"/>
      <stop offset="1" stop-color="#4671b2"/>
    </linearGradient>
    <linearGradient id="Dégradé_sans_nom_385" data-name="Dégradé sans nom 385" x1="458.73" y1="168.46" x2="515.63" y2="232.7" gradientTransform="translate(-82.62 0) scale(.38)" gradientUnits="userSpaceOnUse">
      <stop offset="0" stop-color="#89bcdd"/>
      <stop offset="1" stop-color="#4fa9d5"/>
    </linearGradient>
  </defs>
  <path class="cls-6" d="M12.81,34.59c-2.3,2.23-.06,1.25-1.2,2.81-.94,1.28-1.34,2.79-1.28,4.41l.19,5.18-.16,9.97-.06,50.19c0,1.03.3,1.75.46,2.68.35,2.13,1.68,3.87,3.59,5.05,2.03,1.25,4.13,2.34,6.37,3.63.26.15.49-.58.68-.1.06.16.21.48.35.56l17.88,10.02,28.95,16.36c3.47,1.96,7.05,2.12,10.61.15l14.93-8.25,17.22-9.66,22.76-12.88c2.42-1.37,4.02-4.14,4.02-6.97l.16-60.65c.7.01.02.85.47,1.13.23-.25.17-.54.33-.76.08-.11.19.17.4.16v59.53c.01,3.21-1.31,6.81-4.28,8.47l-56.19,31.52c-3.26,1.83-7.06,1.66-10.24-.13l-29.14-16.44-26.46-14.87c-2.67-1.5-4.19-4.56-4.19-7.68V41.57c.01-3.01,1.41-5.61,3.84-6.98Z"/>
  <path class="cls-5" d="M39.63,129l-17.88-10.02c-.14-.08-.29-.4-.35-.56-.19-.48-.42.25-.68.1-2.24-1.29-4.35-2.39-6.37-3.63-1.9-1.17-3.23-2.91-3.59-5.05-.15-.94-.46-1.66-.46-2.68l.06-50.19.16-9.97c1.01-.78.2,2.24.98,2.38,2.53,14.71,6.04,29.11,10.43,43.57,3.65,12.03,7.64,24.24,16.05,33.85.67.76,1.49,1.31,1.64,2.2Z"/>
  <g>
    <path class="cls-4" d="M139.47,47.63c-.21,0-.32-.28-.4-.16-.16.22-.1.51-.33.76-.45-.28.23-1.12-.47-1.13l-.16,60.65c0,2.82-1.61,5.6-4.02,6.97l-22.76,12.88-17.22,9.66-14.93,8.25c-3.56,1.97-7.14,1.81-10.61-.15l-28.95-16.36c-.15-.89-.97-1.44-1.64-2.2-8.41-9.61-12.4-21.82-16.05-33.85-4.39-14.46-7.9-28.86-10.43-43.57-.78-.14.03-3.16-.98-2.38l-.19-5.18c-.06-1.62.34-3.13,1.28-4.41,1.14-1.56-1.1-.58,1.2-2.81L68.7,3.15c3.9-2.17,8.29-1.57,11.96.48l23.14,12.94,18.22,10.19,11.99,6.66c6.51,3.61,5.46,8.48,5.46,14.21Z"/>
    <path class="cls-7" d="M134.96,36.59c.43,1.61-.48,3.38-2.12,4.28-4.18,2.31-8.09,4.75-12.25,6.72-8.17,3.87-16.09,8.73-24.31,13.33l-8.76,4.9c-6.53,3.65-12.78,6.92-20.02,3.38-5.24-2.57-9.94-5.35-15.04-8.2l-31.7-17.73c-.65-.36-1.56-.52-1.71-1.26-.08-.39-.95-.18-1.34-.1-.06-.03-5.73-2.27-4.34-5.46.33-.74.89-1.37,1.96-1.96L68.94,4.57c3.83-2.14,7.56-1.68,11.24.38l52.93,29.6c.91.51,1.66,1.33,1.85,2.05Z"/>
    <path class="cls-3" d="M74.14,120.34c-.03-3.52-.23-7.14.12-10.65.14-1.37.09-2.6-.01-3.97-.08-1.13.36-2.22-.09-3.49-.29-.8.06-1.88.04-2.68-.17-6.05-.18-12.08.01-18.11.15-4.89,2.42-8.73,6.8-11.24l39.58-22.62c4.15-1.97,8.07-4.41,12.25-6.72,1.63-.9,2.54-2.67,2.12-4.28,1.5-.92,1.5,1.82,2.39,2.62s.61,4.73.36,5.29c-.4.89-.34,1.41-.5,2.24-1.31,6.59-3.48,12.68-6.28,18.73-2.86,6.16-5.74,12.09-9.6,17.69-8.84,12.83-18.74,21.52-31.68,30.36-4.5,3.07-9.05,5.84-14.07,8.07-.34.15-.76.31-.87,0-.13-.33.2-1.15-.13-1.29-.11-.05-.24.16-.42.04Z"/>
    <path class="cls-2" d="M73.49,122.37c-7.65.8-10.3-5.7-12.59-11.97l-9.61-26.39c-1.61-4.41-3.4-8.31-5.44-12.55-2.53-5.26-5.36-10.07-8.76-14.69-2.14-2.9-4.69-5.35-7.77-7.37-.39-.26-.42-.53-.22-.84l14.05,7.9,24.64,14.15c2.29,1.31,3.85,2.99,4.73,5.31.71,1.86,1.29,3.87,1.27,6.06-.1,13.58.32,27.05-.3,40.39Z"/>
    <path class="cls-1" d="M120.6,47.59l-39.58,22.62c-4.38,2.51-6.65,6.34-6.8,11.24-.19,6.03-.18,12.07-.01,18.11.02.8-.33,1.88-.04,2.68.46,1.27.01,2.36.09,3.49.1,1.37.15,2.6.01,3.97-.35,3.5-.15,7.12-.12,10.65l.05,5.06c0,.76.17,1.53.01,2.27-.55,2.57.55,5.12-.45,7.76.55-4.33-.46-8.84-.27-13.06.61-13.34.2-26.81.3-40.39.02-2.19-.57-4.2-1.27-6.06-.88-2.32-2.44-4-4.73-5.31l-24.64-14.15-14.05-7.9-11.38-6.66c.38-.08,1.26-.29,1.34.1.15.74,1.06.9,1.71,1.26l31.7,17.73c5.1,2.86,9.81,5.64,15.04,8.2,7.24,3.55,13.49.27,20.02-3.38l8.76-4.9c8.22-4.6,16.14-9.46,24.31-13.33Z"/>
  </g>
</svg>